<svg id="Capa_1" enable-background="new 0 0 511.744 511.744" height="512" viewBox="0 0 511.744 511.744" width="512" xmlns="http://www.w3.org/2000/svg"><g><g><g><path d="m321.205 453.257c-13.682 21.65-37.829 36.028-65.333 36.028-27.505 0-51.651-14.378-65.333-36.028l65.333-102.872z" fill="#ecb84f"/><path d="m255.872 350.385v138.901c27.505 0 51.651-14.378 65.333-36.028z" fill="#e28658"/></g><g><circle cx="255.872" cy="408.408" fill="#db5053" r="46.543"/><path d="m255.872 361.866v93.085c25.705 0 46.542-20.838 46.542-46.543 0-25.704-20.837-46.542-46.542-46.542z" fill="#ad315f"/></g></g><g><g><g><path d="m89.811 59.534c-20.906 11.849-39.459 23.68-51.52 30.62-29.105 16.747-44.291 71.929-36.072 104.475.194.769.4 1.535.619 2.301 3.976 13.917 10.307 29.113 20.385 42.56 8.067 10.763 12.358 23.886 12.358 37.334 0 12.854 14.337 20.44 25.027 13.295 14.216-9.502 29.202-30.808 29.203-78.409v-.006l10-75.102z" fill="#ecb84f"/><path d="m322.48 22.459h-133.216c-28.366 0-66.783 18.559-99.453 37.075v152.171.006 160.226c.158 45.841 37.64 83.002 83.878 83.002 41.657 0 75.747-30.162 82.184-69.659 6.432 39.503 41.446 69.671 83.107 69.671 46.237 0 83.72-37.16 83.01-83l-.056-160.246v-152.171c-32.672-18.517-71.088-37.075-99.454-37.075z" fill="#f4da9e"/></g><g><path d="m473.453 90.154c-12.061-6.94-30.614-18.771-51.52-30.62l-10 77.069 10 75.102c0 47.605 14.987 68.912 29.203 78.415 10.69 7.145 25.027-.441 25.027-13.295 0-13.448 4.29-26.572 12.357-37.334 10.079-13.447 16.409-28.643 20.385-42.56.219-.765.425-1.532.619-2.301 8.22-32.547-6.967-87.729-36.071-104.476z" fill="#e28658"/><path d="m322.48 22.459h-66.608v362.821c6.432 39.503 41.446 69.671 83.107 69.671 46.237 0 83.72-37.16 83.01-83l-.056-160.246v-152.171c-32.671-18.517-71.087-37.075-99.453-37.075z" fill="#ecb84f"/></g></g><g><g><path d="m290.408 358.274c0 6.424-3.917 14.77-9.113 23.015-11.782 18.697-39.064 18.697-50.846 0-5.196-8.245-9.113-16.591-9.113-23.015 0-19.074 15.462-24.255 34.536-24.255s34.536 5.181 34.536 24.255z" fill="#8e5f4f"/><path d="m255.872 334.019v61.293c9.766 0 19.532-4.674 25.423-14.023 5.196-8.245 9.113-16.591 9.113-23.015 0-19.074-15.462-24.255-34.536-24.255z" fill="#714343"/></g><g><path d="m333.805 276.63c-5.877 0-11.316-3.577-13.703-8.933-2.632-5.908-1.058-13.056 3.795-17.327 4.347-3.825 10.691-4.8 15.986-2.454 5.97 2.645 9.611 9.068 8.812 15.551-.914 7.408-7.425 13.163-14.89 13.163z" fill="#472d20"/><path d="m177.906 276.63c-5.743 0-11.098-3.414-13.55-8.598-2.725-5.759-1.442-12.882 3.206-17.271 4.608-4.352 11.616-5.362 17.251-2.446 5.682 2.94 8.922 9.386 7.898 15.701-1.162 7.167-7.534 12.614-14.805 12.614z" fill="#714343"/></g></g></g></g></svg>